<svg width="64" height="64" viewBox="0 0 64 64" fill="none" xmlns="http://www.w3.org/2000/svg">
<rect width="64" height="64" rx="14" fill="#31A6D7"/>
<path d="M37.6668 27.04C39.1308 27.352 40.3068 28.084 41.1948 29.236C42.0828 30.364 42.5268 31.66 42.5268 33.124C42.5268 35.236 41.7828 36.916 40.2948 38.164C38.8308 39.388 36.7788 40 34.1388 40H22.3668V14.728H33.7428C36.3108 14.728 38.3148 15.316 39.7548 16.492C41.2188 17.668 41.9508 19.264 41.9508 21.28C41.9508 22.768 41.5548 24.004 40.7628 24.988C39.9948 25.972 38.9628 26.656 37.6668 27.04ZM28.5228 24.952H32.5548C33.5628 24.952 34.3308 24.736 34.8588 24.304C35.4108 23.848 35.6868 23.188 35.6868 22.324C35.6868 21.46 35.4108 20.8 34.8588 20.344C34.3308 19.888 33.5628 19.66 32.5548 19.66H28.5228V24.952ZM33.0588 35.032C34.0908 35.032 34.8828 34.804 35.4348 34.348C36.0108 33.868 36.2988 33.184 36.2988 32.296C36.2988 31.408 35.9988 30.712 35.3988 30.208C34.8228 29.704 34.0188 29.452 32.9868 29.452H28.5228V35.032H33.0588Z" fill="white"/>
<rect x="5" y="53" width="54" height="5" rx="2.5" fill="white"/>
<rect x="9.5" y="56.5" width="4" height="4" rx="2" fill="#31A6D7" stroke="white"/>
</svg>
